<svg id="icon_paste" xmlns="http://www.w3.org/2000/svg" viewBox="0 0 16 16"><path d="M12.2 1.01A2 2 0 0 1 14 3v2h-1V3a1 1 0 0 0-1-1H3a1 1 0 0 0-1 1v10a1 1 0 0 0 1 1h2l.01.2c.03.3.12.56.26.8H3l-.2-.01A2 2 0 0 1 1 13.2L1 13V3a2 2 0 0 1 1.8-1.99L3 1h9l.2.01ZM5 11H4a1 1 0 1 1 0-2h1v2Zm.27-5C5.1 6.3 5 6.64 5 7v1H4a1 1 0 0 1 0-2h1.27ZM11 3a1 1 0 1 1 0 2H4a1 1 0 0 1 0-2h7Z"/><path d="M13.2 6.01A2 2 0 0 1 15 8v5l-.01.2A2 2 0 0 1 13.2 15L13 15H8l-.2-.01A2 2 0 0 1 6 13.2L6 13V8a2 2 0 0 1 1.8-1.99L8 6h5l.2.01ZM8 7a1 1 0 0 0-1 1v5a1 1 0 0 0 1 1h5a1 1 0 0 0 1-1V8a1 1 0 0 0-1-1H8Zm3 3h2v1h-2v2h-1v-2H8v-1h2V8h1v2Z"/></svg>